PathFileType	4	(X/Y/Z)	/Users/itak/Documents/Research/Walk-IL/dataset/trc/00357_00011.trc
DataRate	CameraRate	NumFrames	NumMarkers	Units	OrigDataRate	OrigDataStartFrame	OrigNumFrames
100.000000	100.000000	4	59	mm	100.000000	268	430
Frame#	Time	RPSI			LPSI			L3			STRN			T10			C7			CLAV			RBAK			LBAK			LSHO			LUPA			LAEL			LAOL			LWTS			LWPS			LFRA			LHPS			LHTS			RSHO			RUPA			RAEL			RAOL			RWTS			RWPS			RFRA			RIFD			RHTS			RHPS			RBHD			LFHD			RFHD			LBHD			RHIP			RASI			LASI			LKNE			LTHI			LANK			LTIP			LTOE			LMT1			LMT5			LHEE			RKNE			RTHI			RANK			RTIP			RTOE			RMT5			RHEE			LIFD			LHIP			RMT1			*53			*54			*55			*56			*57			*58			
		X1	Y1	Z1	X2	Y2	Z2	X3	Y3	Z3	X4	Y4	Z4	X5	Y5	Z5	X6	Y6	Z6	X7	Y7	Z7	X8	Y8	Z8	X9	Y9	Z9	X10	Y10	Z10	X11	Y11	Z11	X12	Y12	Z12	X13	Y13	Z13	X14	Y14	Z14	X15	Y15	Z15	X16	Y16	Z16	X17	Y17	Z17	X18	Y18	Z18	X19	Y19	Z19	X20	Y20	Z20	X21	Y21	Z21	X22	Y22	Z22	X23	Y23	Z23	X24	Y24	Z24	X25	Y25	Z25	X26	Y26	Z26	X27	Y27	Z27	X28	Y28	Z28	X29	Y29	Z29	X30	Y30	Z30	X31	Y31	Z31	X32	Y32	Z32	X33	Y33	Z33	X34	Y34	Z34	X35	Y35	Z35	X36	Y36	Z36	X37	Y37	Z37	X38	Y38	Z38	X39	Y39	Z39	X40	Y40	Z40	X41	Y41	Z41	X42	Y42	Z42	X43	Y43	Z43	X44	Y44	Z44	X45	Y45	Z45	X46	Y46	Z46	X47	Y47	Z47	X48	Y48	Z48	X49	Y49	Z49	X50	Y50	Z50	X51	Y51	Z51	X52	Y52	Z52	X53	Y53	Z53	X54	Y54	Z54	X55	Y55	Z55	X56	Y56	Z56	X57	Y57	Z57	X58	Y58	Z58	X59	Y59	Z59	

269	2.68	518.0208740234375	933.5121459960938	146.7334594726562	389.5473937988281	943.0367431640625	162.6641693115234	444.8439636230469	1003.307312011719	161.7140960693359	424.0212707519531	1178.55029296875	-69.59008026123047	417.8701171875	1121.588745117188	172.2454223632812	385.8837585449219	1362.037841796875	126.679557800293	412.5673522949219	1303.780639648438	-26.94838714599609	450.7731018066406	1223.399047851562	181.8891754150391	284.7016906738281	1321.76123046875	126.9963455200195	238.3567810058594	1336.403076171875	35.43635177612305	172.2493133544922	1213.361450195312	38.87076187133789	165.0454254150391	1013.919921875	-11.41317939758301	209.4516754150391	988.3645629882812	58.29967880249023	271.2877807617188	846.3177490234375	-178.6914215087891	214.5547180175781	810.1971435546875	-161.6482391357422	177.6303100585938	922.8763427734375	-61.6602783203125	236.0765686035156	747.8707275390625	-185.2730255126953	277.3708190917969	777.83642578125	-222.8753662109375	554.4099731445312	1352.599487304688	92.82679748535156	614.5389404296875	1293.099243164062	122.3413543701172	657.76220703125	1030.634521484375	162.6669921875	565.06494140625	1023.243591308594	176.858642578125	641.8989868164062	795.3517456054688	59.94006729125977	696.8436889648438	782.4257202148438	111.4288940429688	674.410400390625	960.8763427734375	147.2678070068359	647.9878540039062	620.2620849609375	64.21492004394531	659.0730590820312	691.1328735351562	44.24728012084961	695.9744262695312	697.9790649414062	101.8583984375	476.6249694824219	1566.788330078125	92.95111083984375	371.7376708984375	1581.784301757812	-86.68723297119141	471.1273803710938	1582.879150390625	-69.16011047363281	332.7245178222656	1559.92578125	94.52954864501953	611.2200317382812	880.7838134765625	50.36748504638672	554.1400146484375	915.6364135742188	-45.81563949584961	313.7604064941406	907.2269287109375	-39.08829116821289	322.7585144042969	431.44091796875	102.9876251220703	300.3456420898438	570.1535034179688	85.61490631103516	380.8333129882812	58.59466171264648	319.9309387207031	344.3519592285156	230.4134216308594	210.4822692871094	455.2617797851562	35.95525741577148	122.5783615112305	489.4553833007812	30.78540420532227	196.1733703613281	375.2161865234375	43.49971008300781	195.4679565429688	445.1085510253906	68.53582763671875	359.67578125	616.2576904296875	453.60302734375	-136.5602111816406	625.9390869140625	698.8070068359375	-66.47447204589844	633.4564208984375	60.65731048583984	-300.7925720214844	625.5004272460938	359.8829040527344	-194.7373504638672	618.666259765625	157.1790618896484	-472.8680725097656	566.83056640625	131.2699737548828	-434.3898620605469	578.1758422851562	45.98130416870117	-260.6910705566406	309.7018127441406	702.2167358398438	-245.6990051269531	272.7947692871094	886.5831909179688	91.37957763671875	669.3248291015625	89.67336273193359	-393.9930419921875	nan	nan	nan	nan	nan	nan	nan	nan	nan	nan	nan	nan	nan	nan	nan	nan	nan	nan	
270	2.69	522.5267944335938	931.336669921875	137.4130096435547	394.3091735839844	941.244873046875	154.447998046875	449.3365478515625	1001.313903808594	152.6665802001953	426.0770874023438	1176.758056640625	-78.06705474853516	422.264892578125	1119.485229492188	163.6802825927734	389.7308654785156	1360.026123046875	118.7566146850586	415.05712890625	1301.9716796875	-35.21480941772461	455.1383666992188	1221.279663085938	173.3168182373047	288.598388671875	1319.764892578125	119.8807830810547	241.3288421630859	1334.432495117188	28.79426574707031	175.5208435058594	1211.33447265625	33.25991058349609	167.4713134765625	1011.651184082031	-16.07777404785156	212.5337066650391	986.419677734375	53.32009887695312	271.8714294433594	842.7346801757812	-183.2122955322266	215.4236907958984	806.8056640625	-165.3731536865234	179.4827423095703	920.265380859375	-65.84449768066406	237.2173004150391	744.1737060546875	-188.5004272460938	277.8308715820312	773.8477783203125	-226.7814636230469	558.0023193359375	1350.508056640625	83.51918029785156	618.3497314453125	1290.942016601562	112.4697952270508	662.1964111328125	1028.339721679688	151.7838745117188	569.6005249023438	1020.7431640625	166.6141662597656	645.20751953125	793.53271484375	48.06058502197266	700.736328125	780.37060546875	98.81538391113281	678.7720947265625	958.6282958984375	135.9249572753906	650.6134033203125	617.59521484375	52.15213394165039	661.9979248046875	689.216796875	31.84011459350586	699.6989135742188	695.9808959960938	88.88040161132812	479.8098754882812	1564.931762695312	85.11666107177734	373.7842712402344	1580.407836914062	-93.78499603271484	473.304443359375	1581.598388671875	-76.95658874511719	335.9662475585938	1557.904663085938	87.60491943359375	614.5902709960938	878.6345825195312	39.90983200073242	556.411376953125	913.5719604492188	-55.69310760498047	315.9900207519531	905.7334594726562	-46.59882354736328	324.4300842285156	430.6009521484375	98.05856323242188	302.3104248046875	569.2330932617188	79.98122406005859	381.1628112792969	60.11684036254883	319.5038757324219	345.3504943847656	230.7658233642578	207.8148345947266	455.262451171875	35.81390380859375	122.4793701171875	489.583984375	30.8873348236084	196.0261688232422	375.3486633300781	43.71138763427734	195.3201599121094	445.4716186523438	70.5123291015625	359.0850219726562	616.784912109375	453.1390380859375	-150.4210205078125	627.7381591796875	698.0859375	-78.33139038085938	631.3687744140625	58.81166839599609	-311.6187133789062	625.2207641601562	358.5811767578125	-208.1111297607422	616.140625	154.2401428222656	-484.1551513671875	564.4558715820312	128.7518615722656	-445.3677978515625	576.1773681640625	44.7257194519043	-271.2357177734375	309.9483032226562	698.0130615234375	-249.0868530273438	276.5792236328125	885.2310791015625	84.49979400634766	667.1525268554688	87.25057220458984	-405.072998046875	nan	nan	nan	nan	nan	nan	nan	nan	nan	nan	nan	nan	nan	nan	nan	nan	nan	nan	
271	2.7	526.844482421875	929.2431030273438	128.0743103027344	398.8704528808594	939.4121704101562	145.9213714599609	453.6763305664062	999.4368896484375	143.7764892578125	428.2371520996094	1175.0537109375	-86.67198944091797	426.546630859375	1117.403686523438	154.9761352539062	393.6272583007812	1358.114013671875	110.7018356323242	417.6414489746094	1300.238159179688	-43.60422897338867	459.4951171875	1219.286376953125	164.6146087646484	292.5306396484375	1317.878051757812	112.5733261108398	244.4013977050781	1332.572631835938	21.94638633728027	178.8790893554688	1209.453369140625	27.4507007598877	169.9754791259766	1009.506713867188	-20.81611061096191	215.7206573486328	984.666259765625	48.28083038330078	272.3700866699219	839.0508422851562	-187.6371307373047	216.1857299804688	803.37353515625	-168.9329528808594	181.3423309326172	917.7308349609375	-70.00823211669922	238.1414031982422	740.4103393554688	-191.5455322265625	278.0498657226562	769.7481689453125	-230.5848236083984	561.6546630859375	1348.500610351562	74.09534454345703	622.2164306640625	1288.84375	102.4322891235352	666.7168579101562	1026.105224609375	140.5256958007812	574.25830078125	1018.332641601562	156.1695556640625	648.4983520507812	791.7128295898438	35.95477294921875	704.6842651367188	778.3788452148438	85.89051055908203	683.1958618164062	956.45654296875	124.1863174438477	652.9486694335938	614.565673828125	40.36288452148438	664.9378051757812	687.370849609375	19.21772003173828	703.48095703125	694.0358276367188	75.68030548095703	483.0098876953125	1563.132690429688	77.18959045410156	375.8202514648438	1579.130249023438	-100.9484252929688	475.4804992675781	1580.447387695312	-84.82931518554688	339.2259826660156	1555.876831054688	80.59597015380859	617.7655639648438	876.6754150390625	29.51605224609375	558.7911987304688	911.8285522460938	-65.67543792724609	318.3303833007812	904.2809448242188	-54.38678741455078	326.0977172851562	429.7989196777344	92.86174774169922	304.3224792480469	568.325927734375	74.06910705566406	381.4019470214844	61.81539916992188	318.9752807617188	346.2990417480469	231.2373962402344	204.9628295898438	455.2705383300781	35.70750427246094	122.4119186401367	489.7018432617188	31.02986717224121	195.89404296875	375.438232421875	43.91317367553711	195.1210632324219	445.7294921875	72.71786499023438	358.4183044433594	617.3190307617188	452.9797058105469	-164.6067810058594	629.4375610351562	698.0424194335938	-90.56851196289062	629.4232788085938	56.3913688659668	-320.5484619140625	624.81103515625	357.0851440429688	-221.5220947265625	612.6666259765625	149.6033935546875	-493.9307861328125	561.3427734375	124.5157775878906	-454.5484313964844	574.560302734375	42.97525024414062	-279.5596923828125	309.85498046875	693.6390991210938	-252.3606567382812	280.291748046875	883.8230590820312	77.22752380371094	664.598876953125	83.76805114746094	-414.5627746582031	nan	nan	nan	nan	nan	nan	nan	nan	nan	nan	nan	nan	nan	nan	nan	nan	nan	nan	
272	2.71	531.0049438476562	927.2661743164062	118.6143035888672	403.2664794921875	937.6007080078125	137.0849151611328	457.8971252441406	997.67822265625	134.9758453369141	430.5166625976562	1173.477416992188	-95.42181396484375	430.7374877929688	1115.381591796875	146.1290283203125	397.5714721679688	1356.311401367188	102.5302886962891	420.3257751464844	1298.609741210938	-52.10727310180664	463.8463439941406	1217.417358398438	155.7633361816406	296.4984436035156	1316.102661132812	105.0943450927734	247.5784301757812	1330.835327148438	14.906081199646	182.2959747314453	1207.734741210938	21.4329662322998	172.5701141357422	1007.506164550781	-25.63816070556641	219.0173645019531	983.1172485351562	43.16984939575195	272.7991027832031	835.2811889648438	-191.9577331542969	216.8476257324219	799.9198608398438	-172.3223571777344	183.2151641845703	915.2872924804688	-74.15618133544922	238.7757110595703	736.60986328125	-194.4137115478516	278.0236511230469	765.5538330078125	-234.2797546386719	565.3595581054688	1346.598388671875	64.56527709960938	626.138916015625	1286.83251953125	92.23944091796875	671.3155517578125	1023.95703125	128.8936157226562	579.0470581054688	1016.035461425781	145.5222473144531	651.7649536132812	789.924560546875	23.61039161682129	708.6800537109375	776.4776000976562	72.64652252197266	687.6705932617188	954.3919067382812	112.0466003417969	655.089599609375	611.3331298828125	28.72467994689941	667.8796997070312	685.6058349609375	6.374585628509521	707.3125610351562	692.1748046875	62.24328994750977	486.2286987304688	1561.412231445312	69.16529083251953	377.8424682617188	1577.9580078125	-108.1808700561523	477.6518249511719	1579.434326171875	-92.77529907226562	342.5084533691406	1553.857421875	73.50020599365234	620.79736328125	874.9341430664062	19.06870079040527	561.2682495117188	910.4252319335938	-75.82937622070312	320.7664794921875	902.8825073242188	-62.46625137329102	327.710205078125	429.064208984375	87.38082122802734	306.37548828125	567.45947265625	67.89161682128906	381.568115234375	63.71720886230469	318.3458862304688	347.1849365234375	231.8545227050781	201.9207916259766	455.280029296875	35.63589477539062	122.3678283691406	489.8179321289062	31.23172950744629	195.7569274902344	375.4957885742188	44.10771942138672	194.8717651367188	445.9179992675781	75.18854522705078	357.6470947265625	617.8342895507812	453.0045471191406	-178.8279113769531	631.0764770507812	698.5023193359375	-103.0930862426758	627.6067504882812	53.57450103759766	-327.9535217285156	624.256103515625	355.4377746582031	-234.8150787353516	608.302001953125	143.7236785888672	-502.399169921875	557.5426635742188	119.0068511962891	-462.1588439941406	573.3046875	40.86599349975586	-286.0675048828125	309.4203186035156	689.1124267578125	-255.5178527832031	283.9624938964844	882.3908081054688	69.55965423583984	661.6318969726562	79.48674011230469	-422.7580871582031	nan	nan	nan	nan	nan	nan	nan	nan	nan	nan	nan	nan	nan	nan	nan	nan	nan	nan	
